<?xml version="1.0" encoding="UTF-8"?>
<svg width="28px" height="28px" viewBox="0 0 28 28" version="1.1" xmlns="http://www.w3.org/2000/svg" xmlns:xlink="http://www.w3.org/1999/xlink">
    <!-- Generator: Sketch 3.6.1 (26313) - http://www.bohemiancoding.com/sketch -->
    <title>login</title>
    <desc>Created with Sketch.</desc>
    <defs></defs>
    <g id="Page-1" stroke="none" stroke-width="1" fill="none" fill-rule="evenodd">
        <g id="login" fill="#FFFFFF">
            <path d="M13.964557,0 C6.27341772,0 0,6.27341772 0,13.964557 C0,17.5797468 1.38227848,20.9113924 3.65063291,23.3924051 L3.65063291,23.3924051 C6.20253165,26.1924051 9.88860759,27.9291139 13.964557,27.9291139 C18.0405063,27.9291139 21.7265823,26.1924051 24.278481,23.3924051 L24.278481,23.3924051 C26.5468354,20.9113924 27.9291139,17.6151899 27.9291139,13.964557 C27.9291139,6.27341772 21.6556962,0 13.964557,0 L13.964557,0 Z M23.8886076,21.1594937 C23.7822785,21.3012658 23.6759494,21.443038 23.5696203,21.5848101 C21.3012658,24.4202532 17.8632911,26.2278481 13.964557,26.2278481 C10.1012658,26.2278481 6.6278481,24.4202532 4.35949367,21.5848101 C4.25316456,21.443038 4.14683544,21.3012658 4.04050633,21.1594937 C2.58734177,19.1392405 1.73670886,16.6582278 1.73670886,13.964557 C1.73670886,7.19493671 7.23037975,1.70126582 14,1.70126582 C20.7696203,1.70126582 26.2278481,7.23037975 26.2278481,13.964557 C26.2278481,16.6582278 25.3417722,19.1392405 23.8886076,21.1594937 L23.8886076,21.1594937 Z" id="Shape"></path>
            <path d="M14,15.3468354 C14.2835443,15.3468354 14.5670886,15.3113924 14.8506329,15.2759494 C16.0202532,15.0632911 17.0126582,14.4962025 17.756962,13.6455696 C18.5367089,12.7594937 18.9974684,11.6253165 18.9974684,10.3848101 C18.9974684,9.1443038 18.5367089,7.97468354 17.756962,7.12405063 C17.0126582,6.27341772 15.9848101,5.67088608 14.8506329,5.49367089 C14.5670886,5.45822785 14.2835443,5.42278481 14,5.42278481 C11.235443,5.42278481 9.00253165,7.6556962 9.00253165,10.4202532 C9.00253165,13.1139241 11.235443,15.3468354 14,15.3468354 L14,15.3468354 Z" id="Shape"></path>
            <path d="M16.5518987,16.3746835 L16.4810127,16.3746835 C14.8506329,16.1620253 13.1848101,16.1620253 11.5898734,16.3746835 L11.5189873,16.3746835 C8.71898734,16.7291139 6.27341772,18.4303797 4.96202532,20.8759494 C7.08860759,23.5696203 10.3848101,25.2708861 14.0708861,25.2708861 C17.756962,25.2708861 21.0531646,23.5341772 23.1797468,20.8759494 C21.7974684,18.4303797 19.3518987,16.7291139 16.5518987,16.3746835 L16.5518987,16.3746835 Z" id="Shape"></path>
        </g>
    </g>
</svg>