<?xml version="1.0" encoding="UTF-8" standalone="no"?>
<svg width="156px" height="27px" viewBox="0 0 156 27" version="1.1" xmlns="http://www.w3.org/2000/svg" xmlns:xlink="http://www.w3.org/1999/xlink">
    <!-- Generator: Sketch 3.6.1 (26313) - http://www.bohemiancoding.com/sketch -->
    <title>svgpayoff</title>
    <desc>Created with Sketch.</desc>
    <defs></defs>
    <g id="Page-1" stroke="none" stroke-width="1" fill="none" fill-rule="evenodd">
        <g id="svgpayoff" fill="#FFFFFF">
            <g id="payoff" transform="translate(0.000000, 4.000000)">
                <g id="Group">
                    <path d="M5.83,8.405 C4.208,8.405 3.445,9.883 3.445,11.868 C3.445,13.86 4.208,15.308 5.831,15.308 C7.454,15.308 8.241,13.663 8.241,11.868 C8.241,9.905 7.454,8.405 5.831,8.405 L5.83,8.405 Z M5.83,18.571 C2.46,18.57 0,15.826 0,11.87 C0,7.92 2.46,5.145 5.83,5.145 C9.202,5.145 11.687,7.919 11.687,11.87 C11.687,15.827 9.202,18.573 5.831,18.573 L5.83,18.571 Z M20.16,18.033 L16.67,18.033 L12.02,5.143 L15.759,5.143 L17.652,11.109 C17.972,12.085 18.318,13.316 18.464,13.929 C18.61,13.293 18.954,12.116 19.277,11.109 L21.171,5.142 L24.811,5.142 L20.159,18.032 L20.16,18.033 Z M31.06,8.088 C29.832,8.088 29.07,9.096 28.946,10.398 L33.373,10.398 C33.275,9.243 32.587,8.088 31.06,8.088 L31.06,8.088 Z M36.62,12.95 L28.896,12.95 C29.02,14.717 30.321,15.38 31.553,15.38 C32.487,15.38 33.275,15.036 33.768,14.475 L36.176,16.485 C35.144,17.815 33.276,18.571 31.553,18.571 C27.838,18.571 25.478,15.947 25.478,11.869 C25.478,7.919 27.962,5.144 31.232,5.144 C34.677,5.144 36.67,8.187 36.67,11.869 C36.67,12.359 36.643,12.706 36.62,12.951 L36.62,12.95 Z M46.772,9.365 C46.23,8.875 45.562,8.53 44.802,8.53 C43.472,8.53 42.614,9.096 42.614,11.328 L42.614,18.303 L39.217,18.303 L39.217,5.413 L42.614,5.413 L42.614,6.271 C43.204,5.658 44.062,5.144 45.268,5.144 C46.375,5.144 47.212,5.588 47.653,6.052 L46.773,9.367 L46.772,9.365 Z M56.043,17.386 C55.479,17.823 54.47,18.168 53.413,18.168 C51.323,18.168 49.967,16.551 49.967,14.29 L49.967,8.203 L47.804,8.203 L47.804,5.01 L49.967,5.01 L49.967,1.696 L53.364,0 L53.364,5.01 L56.462,5.01 L56.462,8.203 L53.364,8.203 L53.364,13.383 C53.364,14.613 53.804,14.926 54.617,14.926 C55.232,14.926 55.697,14.659 56.537,13.946 L56.043,17.386 L56.043,17.386 Z M67.376,9.365 C66.836,8.875 66.172,8.53 65.409,8.53 C64.081,8.53 63.219,9.096 63.219,11.328 L63.219,18.303 L59.825,18.303 L59.825,5.413 L63.22,5.413 L63.22,6.271 C63.81,5.658 64.67,5.144 65.876,5.144 C66.986,5.144 67.816,5.588 68.264,6.052 L67.376,9.367 L67.376,9.365 Z M75.714,8.088 C74.486,8.088 73.724,9.096 73.6,10.398 L78.024,10.398 C77.927,9.243 77.239,8.088 75.714,8.088 L75.714,8.088 Z M81.271,12.95 L73.551,12.95 C73.674,14.717 74.976,15.38 76.209,15.38 C77.144,15.38 77.929,15.036 78.421,14.475 L80.829,16.485 C79.797,17.815 77.929,18.571 76.209,18.571 C72.493,18.571 70.131,15.947 70.131,11.869 C70.131,7.919 72.617,5.144 75.886,5.144 C79.33,5.144 81.326,8.187 81.326,11.869 C81.326,12.359 81.3,12.706 81.272,12.951 L81.271,12.95 Z M90.07,2.825 C89.063,2.825 88.816,3.145 88.816,3.855 L88.816,4.937 L91.006,4.937 L91.006,8.13 L88.816,8.13 L88.816,17.827 L85.42,17.827 L85.42,8.13 L83.87,8.13 L83.87,4.936 L85.42,4.936 L85.42,3.39 C85.42,0.985 86.748,0 89.11,0 C89.944,0 90.658,0.125 91.253,0.37 L91.253,3.094 C90.907,2.921 90.563,2.824 90.071,2.824 L90.07,2.825 Z M101.15,2.626 C100.384,2.626 99.797,2.04 99.797,1.326 C99.797,0.591 100.384,0 101.15,0 C101.84,0 102.426,0.59 102.426,1.327 C102.426,2.04 101.839,2.627 101.15,2.627 L101.15,2.626 Z M98.222,22.566 L97.609,21.189 C99.942,20.474 100.189,19.862 100.189,17.507 L100.189,4.938 L102.033,4.938 L102.033,17.53 C102.033,20.473 101.465,21.752 98.221,22.563 L98.222,22.566 Z M111.508,6.74 C109.591,6.74 108.262,8.112 108.044,10.983 L115,10.983 C114.856,8.483 113.773,6.741 111.508,6.741 L111.508,6.74 Z M116.651,12.483 L108.045,12.483 C108.215,15.231 109.522,16.977 111.635,16.977 C113.133,16.977 114.021,16.539 115.203,15.749 L116.06,17.077 C114.51,18.054 113.38,18.57 111.437,18.57 C109.077,18.57 106.197,16.853 106.197,11.796 C106.197,7.692 108.463,5.143 111.535,5.143 C114.908,5.143 116.725,7.793 116.725,11.475 C116.725,11.915 116.701,12.187 116.651,12.483 L116.651,12.483 Z M118.217,18.033 L118.217,16.683 L125.277,6.689 L118.787,6.689 L118.787,5.142 L127.369,5.142 L127.369,6.49 L120.305,16.486 L127.368,16.486 L127.368,18.033 L118.215,18.033 L118.217,18.033 Z M135.556,6.74 C133.636,6.74 132.306,8.112 132.084,10.983 L139.044,10.983 C138.896,8.483 137.816,6.741 135.556,6.741 L135.556,6.74 Z M140.696,12.483 L132.084,12.483 C132.259,15.231 133.562,16.977 135.676,16.977 C137.176,16.977 138.066,16.539 139.243,15.749 L140.106,17.077 C138.556,18.054 137.421,18.57 135.482,18.57 C133.117,18.57 130.239,16.853 130.239,11.796 C130.239,7.692 132.505,5.143 135.579,5.143 C138.949,5.143 140.767,7.793 140.767,11.475 C140.767,11.915 140.743,12.187 140.694,12.483 L140.696,12.483 Z M143.978,17.9 L143.978,1.035 L145.818,0 L145.818,17.9 L143.978,17.9 L143.978,17.9 Z M154.073,1.67 C153.309,1.67 152.743,1.94 152.743,3.02 L152.743,4.937 L155.283,4.937 L155.283,6.483 L152.743,6.483 L152.743,17.827 L150.9,17.827 L150.9,6.483 L149.13,6.483 L149.13,4.937 L150.9,4.937 L150.9,3.17 C150.9,0.86 152.155,0 153.95,0 C154.686,0 155.13,0.075 155.574,0.22 L155.574,1.966 C155.154,1.769 154.664,1.671 154.074,1.671 L154.073,1.67 Z" id="Shape"></path>
                </g>
            </g>
        </g>
    </g>
</svg>