<?xml version="1.0" standalone="no"?>
<!DOCTYPE svg PUBLIC "-//W3C//DTD SVG 20010904//EN"
 "http://www.w3.org/TR/2001/REC-SVG-20010904/DTD/svg10.dtd">
<svg version="1.0" xmlns="http://www.w3.org/2000/svg"
 width="200.000000pt" height="200.000000pt" viewBox="0 0 200.000000 200.000000"
 preserveAspectRatio="xMidYMid meet">
<metadata>
Created by potrace 1.11, written by Peter Selinger 2001-2013
</metadata>
<g transform="translate(0.000000,200.000000) scale(0.100000,-0.100000)"
fill="#000000" stroke="none">
<path d="M845 1929 c-153 -8 -207 -25 -320 -101 -97 -64 -185 -154 -218 -222
-52 -105 -81 -271 -80 -456 0 -112 6 -153 39 -269 92 -319 204 -507 359 -606
81 -52 189 -103 283 -134 48 -16 110 -39 137 -52 72 -32 161 -30 240 5 32 15
66 28 75 29 8 2 33 13 55 26 22 12 83 46 135 74 85 47 99 59 137 116 31 47 44
78 49 120 10 78 11 184 1 261 -17 144 -15 175 23 345 5 22 8 76 6 121 -2 72
-6 86 -34 129 -18 27 -32 56 -32 64 -1 29 -11 96 -20 136 -5 22 -12 60 -15 85
-3 24 -15 59 -27 78 l-21 34 31 -7 c51 -11 40 25 -21 72 -29 23 -90 43 -190
63 -32 6 -105 27 -163 46 -72 23 -131 36 -192 40 -48 3 -91 6 -97 8 -5 1 -68
-1 -140 -5z m293 -53 c86 -12 119 -35 90 -64 -23 -23 8 -34 98 -36 50 0 89 -5
91 -11 2 -6 -17 -24 -42 -40 -98 -62 -145 -125 -150 -201 -3 -62 18 -97 78
-129 29 -16 54 -30 56 -31 8 -7 -25 -36 -63 -56 -63 -32 -93 -39 -201 -44
-100 -5 -114 -8 -101 -21 10 -11 174 -10 224 0 24 5 46 6 49 3 3 -3 -4 -28
-16 -55 -25 -59 -26 -92 -6 -190 21 -101 17 -185 -16 -316 -16 -60 -31 -136
-35 -167 -4 -32 -10 -58 -13 -58 -4 0 -32 19 -62 41 -62 47 -140 86 -183 91
-38 4 -45 -18 -9 -27 69 -17 164 -75 220 -134 19 -20 50 -64 70 -98 37 -63 64
-83 166 -122 41 -16 25 -29 -44 -37 -39 -4 -64 -13 -72 -24 -38 -53 -123 -54
-250 -2 -50 22 -137 58 -193 81 -167 69 -244 120 -303 198 -87 116 -166 298
-227 519 -37 136 -36 294 1 475 30 142 61 203 141 280 70 67 128 105 187 125
29 9 57 21 64 26 34 27 102 36 258 32 88 -2 175 -5 193 -8z m377 -186 c3 -5
-4 -23 -17 -40 -28 -38 -16 -63 30 -68 23 -2 37 3 53 22 31 36 39 33 39 -17 0
-56 -37 -127 -76 -146 -18 -9 -64 -15 -127 -15 -96 -1 -99 0 -123 27 -28 32
-32 83 -10 126 18 35 79 89 120 107 36 16 102 18 111 4z m135 -254 c0 -32 -16
-42 -29 -18 -7 13 -7 22 1 30 19 19 28 14 28 -12z m-30 -83 c58 -31 100 -86
101 -132 3 -89 -3 -151 -22 -226 -27 -102 -30 -156 -12 -219 19 -71 16 -298
-5 -351 -22 -58 -71 -121 -114 -145 -75 -42 -211 -29 -270 27 -41 39 -50 65
-53 162 -3 80 4 119 40 246 22 78 27 205 11 280 -7 33 -11 75 -10 93 9 113
112 275 189 295 34 9 98 -4 145 -30z"/>
<path d="M735 1795 c-74 -20 -143 -49 -210 -89 -58 -36 -150 -115 -142 -123 2
-2 29 -1 60 3 46 5 64 14 109 51 63 53 170 108 244 124 51 12 65 21 46 33 -20
12 -61 13 -107 1z"/>
<path d="M705 1694 c-70 -38 -135 -124 -135 -177 0 -13 -11 -38 -25 -57 -27
-37 -31 -50 -14 -50 7 0 36 -16 66 -36 88 -58 138 -76 214 -77 74 0 103 12
152 66 74 82 57 236 -35 310 -31 25 -46 29 -114 33 -61 4 -86 1 -109 -12z
m197 -58 c58 -38 82 -169 42 -223 -40 -54 -70 -68 -142 -68 -119 0 -192 55
-192 144 0 56 46 125 105 160 29 17 154 8 187 -13z"/>
<path d="M683 1505 c-17 -12 -23 -26 -23 -54 0 -70 50 -83 106 -27 19 19 34
38 34 43 0 40 -79 65 -117 38z"/>
<path d="M935 1160 c3 -5 10 -10 16 -10 5 0 9 5 9 10 0 6 -7 10 -16 10 -8 0
-12 -4 -9 -10z"/>
<path d="M480 757 c0 -22 29 -109 42 -124 24 -30 25 2 1 60 -27 67 -43 91 -43
64z"/>
<path d="M1005 735 c22 -13 45 -24 50 -24 6 0 -8 11 -30 24 -22 14 -44 25 -50
25 -5 0 8 -11 30 -25z"/>
<path d="M602 491 c4 -13 18 -16 19 -4 0 4 -5 9 -11 12 -7 2 -11 -2 -8 -8z"/>
<path d="M832 338 c4 -13 187 -82 196 -74 8 9 -10 26 -28 26 -10 0 -50 14 -88
30 -80 34 -85 35 -80 18z"/>
<path d="M1459 1306 c-29 -17 -83 -95 -98 -142 -5 -16 -12 -102 -15 -190 -6
-164 -11 -218 -26 -287 -4 -21 -7 -84 -7 -140 2 -87 5 -107 25 -138 31 -51 80
-72 150 -67 48 4 60 9 84 39 63 75 91 207 67 308 -21 88 -17 165 15 264 24 74
28 99 24 160 -6 82 -36 157 -74 182 -36 23 -113 29 -145 11z m124 -54 c42 -37
4 -53 -75 -31 -43 11 -50 35 -15 48 27 11 66 4 90 -17z m-70 -92 c6 -23 -7
-34 -28 -26 -12 4 -13 10 -3 30 12 28 23 27 31 -4z m-73 -10 c0 -13 -7 -20
-20 -20 -22 0 -23 1 -14 24 9 23 34 20 34 -4z m130 -6 c0 -8 -4 -14 -10 -14
-5 0 -10 9 -10 21 0 11 5 17 10 14 6 -3 10 -13 10 -21z m60 -4 c0 -5 -2 -10
-4 -10 -3 0 -8 5 -11 10 -3 6 -1 10 4 10 6 0 11 -4 11 -10z m1 -64 c3 -29 -5
-67 -26 -128 -34 -98 -38 -150 -17 -244 10 -44 16 -86 14 -93 -2 -6 -27 10
-58 38 -44 41 -63 51 -106 58 l-53 8 4 140 c4 129 7 210 10 226 2 12 231 7
232 -5z m-103 -451 c18 -20 30 -40 27 -45 -3 -6 -51 -10 -106 -10 -90 0 -99 2
-99 19 0 46 14 83 34 91 34 12 107 -15 144 -55z m51 -141 c-13 -16 -22 -12
-26 14 -1 9 5 23 15 30 15 11 17 10 20 -8 2 -12 -2 -28 -9 -36z m-191 18 c4
-27 -14 -29 -28 -3 -14 27 -13 33 8 29 9 -2 18 -13 20 -26z m66 19 c8 -13 -4
-42 -15 -35 -12 7 -12 44 0 44 6 0 12 -4 15 -9z m58 -42 l-9 -24 -7 23 c-8 26
2 48 15 35 6 -6 6 -19 1 -34z m-14 -50 c36 -12 41 -24 15 -37 -46 -23 -148 13
-123 44 11 13 52 10 108 -7z"/>
</g>
</svg>
